<svg xmlns="http://www.w3.org/2000/svg" viewBox="0 0 96 96">
  <defs>
    <linearGradient id="azure-gradient" x1="58.97" y1="9.01" x2="26.96" y2="84.01" gradientUnits="userSpaceOnUse">
      <stop offset="0" stop-color="#114a8b"/>
      <stop offset="1" stop-color="#0669bc"/>
    </linearGradient>
    <linearGradient id="azure-gradient-2" x1="60.00" y1="52.00" x2="54.00" y2="54.00" gradientUnits="userSpaceOnUse">
      <stop offset="0" stop-opacity=".3"/>
      <stop offset=".07" stop-opacity=".2"/>
      <stop offset=".32" stop-opacity=".1"/>
      <stop offset=".62" stop-opacity=".05"/>
      <stop offset="1" stop-opacity="0"/>
    </linearGradient>
    <linearGradient id="azure-gradient-3" x1="39.57" y1="14.58" x2="66.47" y2="83.58" gradientUnits="userSpaceOnUse">
      <stop offset="0" stop-color="#3ccbf4"/>
      <stop offset="1" stop-color="#2892df"/>
    </linearGradient>
  </defs>
  <path fill="url(#azure-gradient)" d="M33.3,6.5H18.7L40.8,89.4c.5,1.8,2.1,3.1,4,3.1H62.3c-1.9,0-3.5-1.3-4-3.1L33.3,6.5Z"/>
  <path fill="#0078d4" d="M72.1,71.9H39.2c-1.3,0-1.8,1.7-.8,2.5l19.4,16.3a4.65,4.65,0,0,0,3,1.1H83.1Z"/>
  <path fill="url(#azure-gradient-2)" d="M33.3,6.5c-1.9,0-3.5,1.3-4,3.1L4.7,89.3a3.54,3.54,0,0,0,3.4,4.6H29c1.5-.5,2.8-1.7,3.2-3.3L37.8,73,57.8,90.1a4.87,4.87,0,0,0,2.9,1.1H83.1L72.1,71.9,42.2,71.8,58.7,6.5Z"/>
  <path fill="url(#azure-gradient-3)" d="M62.7,6.5H33.3a3.93,3.93,0,0,0-3.7,3.1L4.7,89.4a3.54,3.54,0,0,0,3.4,4.6H31.8c1.4-.4,2.6-1.5,3-2.9L39.7,74l18.1,15.4a4.65,4.65,0,0,0,3,1.1H84.3L71.8,71.8l-29-30.1L66.4,10A4.05,4.05,0,0,0,62.7,6.5Z"/>
</svg>
